<svg id="Слой_1" xmlns="http://www.w3.org/2000/svg" viewBox="0 0 345.2 93.9"><path d="M24.4 77.2c-1.3-1-2.9-1.4-5-1.3 1.7-.6 3-1.5 4-2.8 1-1.3 1.5-2.9 1.5-4.7 0-2.5-.9-4.2-2.8-5.1-1.9-.9-4.5-1.1-8-.5L7.4 64v29.9l8.2-1.4c3.4-.6 6-1.7 7.9-3.4 1.9-1.7 2.8-3.9 2.8-6.7 0-2.5-.7-4.2-1.9-5.2zM10 65.7l4.3-.8c2.6-.5 4.6-.4 5.9.2 1.3.6 2 1.9 2 3.8 0 1.7-.6 3.2-1.7 4.3-1.1 1.2-2.6 1.9-4.5 2.3l-6 1.1V65.7zm5.5 24.6l-5.5 1V78.8l6.3-1.1c2.2-.4 3.9-.2 5.3.6 1.3.8 2 2.3 2 4.5 0 4-2.7 6.5-8.1 7.5zm23.9-17.2l-3.6.6V66l-2.5.4v22.8l6.6-1.2c2.6-.5 4.6-1.5 6.2-3 1.6-1.6 2.4-3.6 2.4-6.2 0-4.8-3.1-6.8-9.1-5.7zM44.2 84c-1.1 1.1-2.6 1.8-4.6 2.1l-3.8.7v-11l3.6-.6c2.3-.4 3.9-.2 4.9.5 1 .7 1.5 2 1.5 3.8 0 1.9-.6 3.4-1.6 4.5zm8.4 1.9l2.5-.4V62.6l-2.5.4v22.9zm14.1-5.5c.2-2.8.3-5 .3-6.5V60.6l-2.6.4v22.8l3-.5 11.4-21.9c-.2 2-.3 4-.3 5.8v14.1l2.5-.4V58.1l-3 .5-11.3 21.8zm23.5-1.1l2.5-.4V58.2l10.6-1.9.3-2.2-13.5 2.4v22.8zm27.9-28.2c-1.4.3-2.7.8-3.9 1.7-1.2.9-2.2 2-3.1 3.3l-.2-3.3-2.2.4V85l2.5-.8V72.9c.8.8 1.7 1.4 2.8 1.8 1.1.4 2.3.4 3.7.2 2.8-.5 4.9-2 6.4-4.4 1.5-2.4 2.2-5.5 2.2-9.1 0-3.8-.7-6.5-2.1-8.3-1.2-1.9-3.3-2.5-6.1-2zm4 18.4c-1.1 1.9-2.7 3-4.8 3.3-2.5.4-4.5-.4-6-2.4V58.3c.9-1.4 1.9-2.5 2.9-3.4 1-.9 2.2-1.4 3.6-1.7 4-.7 6.1 2.2 6.1 8.6-.2 3.3-.7 5.9-1.8 7.7zm18.1-14.2l-3.6.6v-7.7l-2.5.4v22.8l6.6-1.2c2.6-.5 4.6-1.5 6.2-3 1.6-1.6 2.4-3.6 2.4-6.2 0-4.8-3.1-6.7-9.1-5.7zm4.8 10.9c-1.1 1.1-2.6 1.8-4.6 2.1l-3.8.7V58l3.6-.6c2.3-.4 3.9-.2 4.9.5 1 .7 1.5 2 1.5 3.8 0 1.9-.6 3.4-1.6 4.5zm8.4 1.9l2.5-.4V44.9l-2.5.4v22.8zm22.7-16.4c1.4-.5 2.5-1.2 3.3-2.2.8-1 1.2-2.1 1.2-3.4 0-1.9-.7-3.2-2.2-4-1.5-.8-3.5-1-6.2-.5-2.2.4-4.5 1-6.9 2v22.6l7.3-1.3c2.9-.5 5.1-1.5 6.8-2.9 1.7-1.5 2.5-3.3 2.5-5.5 0-1.7-.5-2.9-1.5-3.6-1-1-2.4-1.3-4.3-1.2zm-8.4-7c1.5-.5 3-.9 4.5-1.1 3.8-.7 5.8.3 5.8 3 0 1.3-.4 2.4-1.3 3.2-.8.8-2 1.4-3.5 1.6l-5.4 1v-7.7zm9.6 16c-1.2 1-2.8 1.6-4.8 2l-4.8.8v-9.2l5.6-1c2-.3 3.4-.3 4.4.3.9.5 1.4 1.6 1.4 3 0 1.8-.6 3.2-1.8 4.1zm26.1-3.9c-.3-.5-.5-1.3-.5-2.5v-11c0-4.8-2.5-6.8-7.5-5.9-2.2.4-4.6 1.3-7.2 2.8l.8 1.8c2.4-1.3 4.5-2.1 6.2-2.4 1.9-.3 3.2-.2 4.1.5s1.2 1.9 1.2 3.8v2.2l-4.4.8c-3 .5-5.3 1.6-7 3.1-1.7 1.6-2.5 3.5-2.5 5.9 0 2.1.6 3.6 1.9 4.6 1.3 1 3 1.3 5.2.9 3.2-.6 5.5-2.3 7.1-5.1.2 1.2.5 2 1.1 2.5.6.5 1.4.7 2.4.8l.6-1.9c-.7-.1-1.2-.4-1.5-.9zm-3-2.5c-1.5 2.9-3.6 4.6-6.3 5.1-1.5.3-2.7.1-3.5-.6-.8-.7-1.3-1.8-1.3-3.4 0-1.8.6-3.3 1.8-4.4 1.2-1.1 3-1.9 5.3-2.3l4-.7v6.3zm28.4-22.8c-2.6.5-4.7 1.8-6.3 4-1.6 2.2-2.6 4.9-2.8 8.1l-5 .9v-10l-2.5.4v22.8l2.5-.4V46.6l5-.9c.1 3.4 1 6 2.6 7.7 1.6 1.7 3.8 2.4 6.5 1.9 1.9-.3 3.6-1.1 5-2.4 1.4-1.2 2.5-2.8 3.2-4.8.7-1.9 1.1-4.1 1.1-6.4 0-3.7-.8-6.4-2.5-8.2-1.7-1.8-3.9-2.5-6.8-2zm4.9 18.3c-1.1 1.9-2.8 3-4.9 3.4-2.1.4-3.7-.2-4.8-1.7-1.1-1.5-1.7-3.8-1.7-6.9 0-3.2.6-5.8 1.7-7.6 1.1-1.8 2.7-2.9 4.8-3.3 2.1-.4 3.7.2 4.8 1.7 1.1 1.5 1.7 3.8 1.7 6.9.1 3.1-.5 5.6-1.6 7.5zm6.4-17.6l7.9-1.4v20.6l2.5-.4V30.4l7.6-1.3.3-2.2-18.3 3.1v2.2zm46.3.1c1.4-.5 2.5-1.2 3.3-2.2.8-1 1.2-2.1 1.2-3.4 0-1.9-.7-3.2-2.2-4-1.5-.8-3.5-1-6.2-.5-2.2.4-4.5 1-6.9 2v22.6l7.3-1.3c2.9-.5 5.1-1.5 6.8-2.9 1.7-1.5 2.5-3.3 2.5-5.5 0-1.7-.5-2.9-1.5-3.6-1.1-1-2.5-1.3-4.3-1.2zm-8.4-7c1.5-.5 3-.9 4.5-1.1 3.8-.7 5.8.3 5.8 3 0 1.3-.4 2.4-1.3 3.2-.8.8-2 1.4-3.5 1.6l-5.4 1v-7.7zm9.6 16c-1.2 1-2.8 1.6-4.8 2l-4.8.8V35l5.6-1c2-.3 3.4-.2 4.4.3s1.4 1.6 1.4 3c0 1.7-.6 3-1.8 4zm22.5-3c-.8.5-1.8.8-2.8 1-2.2.4-3.9-.1-5.1-1.5-1.3-1.4-1.9-3.7-1.9-6.8 0-3.2.6-5.7 1.9-7.6 1.3-1.9 3-3 5.1-3.4 1-.2 1.9-.2 2.7 0 .8.1 1.6.5 2.3.9l1.3-1.9c-1-.6-1.9-1.1-3-1.2-1-.2-2.2-.2-3.5.1-1.9.3-3.6 1.1-5.1 2.4-1.5 1.2-2.6 2.8-3.4 4.8-.8 2-1.2 4.1-1.2 6.6 0 2.4.4 4.5 1.2 6.1.8 1.6 1.9 2.8 3.4 3.4 1.5.7 3.2.8 5.1.5 2.4-.4 4.6-1.6 6.5-3.6l-1.2-1.5c-.7.6-1.5 1.2-2.3 1.7zm16.3-24c-1.8.3-3.4 1.1-4.8 2.4s-2.4 2.8-3.2 4.8c-.7 1.9-1.1 4.1-1.1 6.5 0 3.7.9 6.4 2.6 8.1 1.7 1.8 4.1 2.4 7.1 1.8 1.5-.3 2.8-.7 4-1.4 1.2-.7 2.4-1.6 3.5-2.7l-1.2-1.4c-1.1 1-2.1 1.7-3 2.3-.9.5-2 .9-3.2 1.1-2.1.4-3.7-.1-5-1.3s-2-3.3-2.1-6.2l15.2-2.7c.1-.6.1-1.2.1-1.8 0-3.4-.8-6-2.3-7.7-1.5-1.7-3.7-2.3-6.6-1.8zm6.4 9.8L320 26.4c.1-3 .8-5.3 1.9-7 1.2-1.7 2.7-2.7 4.6-3 2.1-.4 3.7.1 4.7 1.3 1.1 1.3 1.6 3.2 1.6 5.7v.7zm11.5.9l.2-20.4-2.7.5.2 20.3 2.3-.4zm.3 6.4c-.4-.3-.9-.4-1.5-.3-.6.1-1.1.4-1.5.9-.4.5-.6 1-.6 1.6s.2 1 .6 1.4c.4.3.9.5 1.5.3.6-.1 1.1-.4 1.5-.9.4-.5.6-1 .6-1.6s-.2-1.1-.6-1.4z" fill="#e4d730"/><path d="M17 76c-1.3-1-2.9-1.4-5-1.3 1.7-.6 3-1.5 4-2.8 1-1.3 1.5-2.9 1.5-4.7 0-2.5-.9-4.2-2.8-5.1-1.9-.9-4.5-1.1-8-.5L0 62.7v29.9l8.2-1.4c3.4-.6 6-1.7 7.9-3.4 1.9-1.7 2.8-3.9 2.8-6.7 0-2.5-.6-4.2-1.9-5.1zM2.6 64.5l4.3-.8c2.6-.5 4.6-.4 5.9.2 1.3.6 2 1.9 2 3.8 0 1.7-.6 3.2-1.7 4.3-1.1 1.2-2.6 1.9-4.5 2.3l-6 1.1V64.5zM8.2 89l-5.5 1V77.5L9 76.4c2.2-.4 3.9-.2 5.3.6 1.3.8 2 2.3 2 4.5-.1 4.1-2.8 6.6-8.1 7.5zm37.1-4.3l2.5-.4V61.4l-2.5.4v22.9zM32 71.8l-3.6.6v-7.7l-2.5.4v22.8l6.6-1.2c2.6-.5 4.6-1.5 6.2-3 1.6-1.6 2.4-3.6 2.4-6.2 0-4.8-3-6.7-9.1-5.7zm4.8 10.9c-1.1 1.1-2.6 1.8-4.6 2.1l-3.8.7v-11l3.6-.6c2.3-.4 3.9-.2 4.9.5 1 .7 1.5 2 1.5 3.8 0 1.9-.5 3.4-1.6 4.5zm22.5-3.5c.2-2.8.3-5 .3-6.5V59.3l-2.6.5v22.8l3-.5 11.4-21.9c-.2 2-.3 4-.3 5.8v14.1l2.5-.4V56.8l-3 .5-11.3 21.9zM82.9 78l2.5-.4V56.9L96 55.1l.3-2.2-13.5 2.4V78zm27.9-28.2c-1.4.3-2.7.8-3.9 1.7-1.2.9-2.2 2-3.1 3.3l-.2-3.3-2.2.4v31.8l2.5-.8V71.7c.8.8 1.7 1.4 2.8 1.8 1.1.4 2.3.4 3.7.2 2.8-.5 4.9-2 6.4-4.4 1.5-2.4 2.2-5.5 2.2-9.1 0-3.8-.7-6.5-2.1-8.3-1.3-1.9-3.4-2.6-6.1-2.1zm3.9 18.5c-1.1 1.9-2.7 3-4.8 3.3-2.5.4-4.5-.4-6-2.4V57c.9-1.4 1.9-2.5 2.9-3.4 1-.9 2.2-1.4 3.6-1.7 4-.7 6.1 2.2 6.1 8.6-.2 3.4-.7 5.9-1.8 7.8zm18.1-14.2l-3.6.6V47l-2.5.4v22.8l6.6-1.2c2.6-.5 4.6-1.5 6.2-3 1.6-1.6 2.4-3.6 2.4-6.2 0-4.9-3-6.8-9.1-5.7zm4.8 10.8c-1.1 1.1-2.6 1.8-4.6 2.1l-3.8.7v-11l3.6-.6c2.3-.4 3.9-.2 4.9.5 1 .7 1.5 2 1.5 3.8 0 1.9-.5 3.5-1.6 4.5zm8.5 2l2.5-.4V43.6l-2.5.4v22.9zm22.6-16.4c1.4-.5 2.5-1.2 3.3-2.2.8-1 1.2-2.1 1.2-3.4 0-1.9-.7-3.2-2.2-4-1.5-.8-3.5-1-6.2-.5-2.2.4-4.5 1-6.9 2V65l7.3-1.3c2.9-.5 5.1-1.5 6.8-2.9 1.7-1.5 2.5-3.3 2.5-5.5 0-1.7-.5-2.9-1.5-3.6-1-1.1-2.4-1.4-4.3-1.2zm-8.3-7c1.5-.5 3-.9 4.5-1.1 3.8-.7 5.8.3 5.8 3 0 1.3-.4 2.4-1.3 3.2-.8.8-2 1.4-3.5 1.6l-5.4 1v-7.7zm9.6 16c-1.2 1-2.8 1.6-4.8 2l-4.8.8v-9.2l5.6-1c2-.3 3.4-.3 4.4.3.9.5 1.4 1.6 1.4 3 0 1.8-.6 3.1-1.8 4.1zm26-3.9c-.3-.5-.5-1.3-.5-2.5v-11c0-4.8-2.5-6.8-7.5-5.9-2.2.4-4.6 1.3-7.2 2.8l.7 1.8c2.4-1.3 4.5-2.1 6.2-2.4 1.9-.3 3.2-.2 4.1.5s1.2 1.9 1.2 3.8v2.2l-4.4.8c-3 .5-5.3 1.6-7 3.1-1.7 1.6-2.5 3.5-2.5 5.9 0 2.1.6 3.6 1.9 4.6 1.3 1 3 1.3 5.2.9 3.2-.6 5.5-2.3 7.1-5.1.2 1.2.5 2 1.1 2.5.6.5 1.4.7 2.4.8l.6-1.9c-.6-.1-1.1-.5-1.4-.9zm-2.9-2.6c-1.5 2.9-3.6 4.6-6.3 5.1-1.5.3-2.7.1-3.5-.6-.8-.7-1.3-1.8-1.3-3.4 0-1.8.6-3.3 1.8-4.4 1.2-1.1 3-1.9 5.3-2.3l4-.7V53zm28.4-22.7c-2.6.5-4.7 1.8-6.3 4-1.6 2.2-2.6 4.9-2.8 8.1l-5 .9v-10l-2.5.4v22.8l2.5-.4V45.3l5-.9c.1 3.4 1 6 2.6 7.7 1.6 1.7 3.8 2.4 6.5 1.9 1.9-.3 3.6-1.1 5-2.4 1.4-1.2 2.5-2.8 3.2-4.8.7-1.9 1.1-4.1 1.1-6.4 0-3.7-.8-6.4-2.5-8.2-1.7-1.8-4-2.4-6.8-1.9zm4.8 18.2c-1.1 1.9-2.8 3-4.9 3.4-2.1.4-3.7-.2-4.8-1.7-1.1-1.5-1.7-3.8-1.7-6.9 0-3.2.6-5.8 1.7-7.6 1.1-1.8 2.7-2.9 4.8-3.3 2.1-.4 3.7.2 4.8 1.7 1.1 1.5 1.7 3.8 1.7 6.9.1 3.1-.5 5.7-1.6 7.5zm6.5-17.6l7.9-1.4v20.6l2.5-.4V29.1l7.6-1.3.3-2.2-18.3 3.2v2.1zm46.2.1c1.4-.5 2.5-1.2 3.3-2.2.8-1 1.2-2.1 1.2-3.4 0-1.9-.7-3.2-2.2-4-1.5-.8-3.5-1-6.2-.5-2.2.4-4.5 1-6.9 2v22.6l7.3-1.3c2.9-.5 5.1-1.5 6.8-2.9 1.7-1.5 2.5-3.3 2.5-5.5 0-1.7-.5-2.9-1.5-3.6-1-1-2.5-1.3-4.3-1.2zm-8.4-7c1.5-.5 3-.9 4.5-1.1 3.8-.7 5.8.3 5.8 3 0 1.3-.4 2.4-1.3 3.2-.8.8-2 1.4-3.5 1.6l-5.4 1V24zm9.6 16c-1.2 1-2.8 1.6-4.8 2l-4.8.8v-9.2l5.6-1c2-.3 3.4-.2 4.4.3s1.4 1.6 1.4 3c0 1.8-.6 3.2-1.8 4.1zm22.5-3c-.8.5-1.8.8-2.8 1-2.2.4-3.9-.1-5.1-1.5-1.3-1.4-1.9-3.7-1.9-6.8 0-3.2.6-5.7 1.9-7.6 1.3-1.9 3-3 5.1-3.4 1-.2 1.9-.2 2.7 0 .8.1 1.6.5 2.3.9l1.3-1.9c-1-.6-1.9-1.1-3-1.2-1-.2-2.2-.2-3.5.1-1.9.3-3.6 1.1-5.1 2.4-1.5 1.2-2.6 2.8-3.4 4.8-.8 2-1.2 4.1-1.2 6.6 0 2.4.4 4.5 1.2 6.1.8 1.6 1.9 2.8 3.4 3.4 1.5.7 3.2.8 5.1.5 2.4-.4 4.6-1.6 6.5-3.6l-1.2-1.5c-.6.6-1.5 1.3-2.3 1.7zM319 13.1c-1.8.3-3.4 1.1-4.8 2.4s-2.4 2.8-3.2 4.8c-.7 1.9-1.1 4.1-1.1 6.5 0 3.7.9 6.4 2.6 8.1 1.7 1.8 4.1 2.4 7.1 1.8 1.5-.3 2.8-.7 4-1.4 1.2-.7 2.4-1.6 3.5-2.7l-1.2-1.4c-1.1 1-2.1 1.7-3 2.3-.9.5-2 .9-3.2 1.1-2.1.4-3.7-.1-5-1.3s-2-3.3-2.1-6.2l15.2-2.7c.1-.6.1-1.2.1-1.8 0-3.4-.8-6-2.3-7.7-1.4-1.7-3.7-2.3-6.6-1.8zm6.4 9.8l-12.8 2.3c.1-3 .8-5.3 1.9-7 1.2-1.7 2.7-2.7 4.6-3 2.1-.4 3.7.1 4.7 1.3 1.1 1.3 1.6 3.2 1.6 5.7v.7zm11.8 7.2c-.4-.3-.9-.4-1.5-.3-.6.1-1.1.4-1.5.9-.4.5-.6 1-.6 1.6s.2 1 .6 1.4c.4.3.9.5 1.5.3.6-.1 1.1-.4 1.5-.9.4-.5.6-1 .6-1.6s-.2-1.1-.6-1.4zm-.3-6.4l.2-20.4-2.7.5.2 20.3 2.3-.4z" fill="#1cace4"/><path d="M20.3 72.6c-1.3-1-2.9-1.4-5-1.3 1.7-.6 3-1.5 4-2.8 1-1.3 1.5-2.9 1.5-4.7 0-2.5-.9-4.2-2.8-5.1-1.9-.9-4.5-1.1-8-.5l-6.7 1.2v29.9l8.2-1.4c3.4-.6 6-1.7 7.9-3.4 1.9-1.7 2.8-3.9 2.8-6.7 0-2.5-.6-4.2-1.9-5.2zM5.9 61.2l4.3-.8c2.6-.5 4.6-.4 5.9.2 1.3.6 2 1.9 2 3.8 0 1.7-.6 3.2-1.7 4.3-1.1 1.2-2.6 1.9-4.5 2.3l-6 1.1V61.2zm5.6 24.5l-5.5 1V74.2l6.3-1.1c2.2-.4 3.9-.2 5.3.6 1.3.8 2 2.3 2 4.5-.1 4.1-2.8 6.6-8.1 7.5zm37-4.4l2.5-.4V58.1l-2.5.4v22.8zM35.3 68.5l-3.6.6v-7.7l-2.5.4v22.8l6.6-1.2c2.6-.5 4.6-1.5 6.2-3 1.6-1.6 2.4-3.6 2.4-6.2 0-4.8-3-6.7-9.1-5.7zm4.8 10.9c-1.1 1.1-2.6 1.8-4.6 2.1l-3.8.7v-11l3.6-.6c2.3-.4 3.9-.2 4.9.5 1 .7 1.5 2 1.5 3.8 0 1.9-.5 3.4-1.6 4.5zm22.5-3.5c.2-2.8.3-5 .3-6.5V56l-2.5.4v22.8l3-.5 11.4-21.9c-.2 2-.3 4-.3 5.8v14.1l2.5-.4V53.5l-3 .5-11.4 21.9zm23.6-1.2l2.5-.4V53.6l10.6-1.9.3-2.2-13.5 2.4v22.8zM114 46.5c-1.4.3-2.7.8-3.9 1.7-1.2.9-2.2 2-3.1 3.3l-.2-3.3-2.2.4v31.8l2.5-.8V68.3c.8.8 1.7 1.4 2.8 1.8 1.1.4 2.3.4 3.7.2 2.8-.5 4.9-2 6.4-4.4 1.5-2.4 2.2-5.5 2.2-9.1 0-3.8-.7-6.5-2.1-8.3-1.2-1.8-3.3-2.5-6.1-2zm4 18.5c-1.1 1.9-2.7 3-4.8 3.3-2.5.4-4.5-.4-6-2.4V53.7c.9-1.4 1.9-2.5 2.9-3.4 1-.9 2.2-1.4 3.6-1.7 4-.7 6.1 2.2 6.1 8.6-.2 3.3-.7 5.9-1.8 7.8zm18.1-14.2l-3.6.6v-7.7l-2.5.4V67l6.6-1.2c2.6-.5 4.6-1.5 6.2-3 1.6-1.6 2.4-3.6 2.4-6.2 0-5-3-6.9-9.1-5.8zm4.8 10.8c-1.1 1.1-2.6 1.8-4.6 2.1l-3.8.7v-11l3.6-.6c2.3-.4 3.9-.2 4.9.5 1 .7 1.5 2 1.5 3.8 0 1.9-.5 3.5-1.6 4.5zm8.4 2l2.5-.4V40.3l-2.5.4v22.9zM172 47.2c1.4-.5 2.5-1.2 3.3-2.2.8-1 1.2-2.1 1.2-3.4 0-1.9-.7-3.2-2.2-4-1.5-.8-3.5-1-6.2-.5-2.2.4-4.5 1-6.9 2v22.6l7.3-1.3c2.9-.5 5.1-1.5 6.8-2.9 1.7-1.5 2.5-3.3 2.5-5.5 0-1.7-.5-2.9-1.5-3.6-1-1.1-2.4-1.4-4.3-1.2zm-8.3-7.1c1.5-.5 3-.9 4.5-1.1 3.8-.7 5.8.3 5.8 3 0 1.3-.4 2.4-1.3 3.2-.8.8-2 1.4-3.5 1.6l-5.4 1v-7.7zm9.6 16.1c-1.2 1-2.8 1.6-4.8 2l-4.8.8v-9.2l5.6-1c2-.3 3.4-.3 4.4.3.9.5 1.4 1.6 1.4 3 0 1.8-.6 3.1-1.8 4.1zm26-3.9c-.3-.5-.5-1.3-.5-2.5v-11c0-4.8-2.5-6.8-7.5-5.9-2.2.4-4.6 1.3-7.2 2.8l.7 1.8c2.4-1.3 4.5-2.1 6.2-2.4 1.9-.3 3.2-.2 4.1.5s1.2 1.9 1.2 3.8v2.2l-4.4.8c-3 .5-5.3 1.6-7 3.1-1.7 1.6-2.5 3.5-2.5 5.9 0 2.1.6 3.6 1.9 4.6 1.3 1 3 1.3 5.2.9 3.2-.6 5.5-2.3 7.1-5.1.2 1.2.5 2 1.1 2.5.6.5 1.4.7 2.4.8l.6-1.9c-.6-.2-1.1-.5-1.4-.9zm-3-2.6c-1.5 2.9-3.6 4.6-6.3 5.1-1.5.3-2.7.1-3.5-.6-.8-.7-1.3-1.8-1.3-3.4 0-1.8.6-3.3 1.8-4.4 1.2-1.1 3-1.9 5.3-2.3l4-.7v6.3zM224.8 27c-2.6.5-4.7 1.8-6.3 4-1.6 2.2-2.6 4.9-2.8 8.1l-5 .9V30l-2.5.4v22.8l2.5-.4V42l5-.9c.1 3.4 1 6 2.6 7.7 1.6 1.7 3.8 2.4 6.5 1.9 1.9-.3 3.6-1.1 5-2.4 1.4-1.2 2.5-2.8 3.2-4.8.7-1.9 1.1-4.1 1.1-6.4 0-3.7-.8-6.4-2.5-8.2-1.7-1.8-4-2.4-6.8-1.9zm4.8 18.2c-1.1 1.9-2.8 3-4.9 3.4-2.1.4-3.7-.2-4.8-1.7-1.1-1.5-1.7-3.8-1.7-6.9 0-3.2.6-5.8 1.7-7.6 1.1-1.8 2.7-2.9 4.8-3.3 2.1-.4 3.7.2 4.8 1.7 1.1 1.5 1.7 3.8 1.7 6.9.1 3.1-.5 5.6-1.6 7.5zm6.5-17.6l7.9-1.4v20.6l2.5-.4V25.8l7.6-1.3.3-2.2-18.3 3.2v2.1zm46.2.1c1.4-.5 2.5-1.2 3.3-2.2.8-1 1.2-2.1 1.2-3.4 0-1.9-.7-3.2-2.2-4-1.5-.8-3.5-1-6.2-.5-2.2.4-4.5 1-6.9 2V42l7.3-1.3c2.9-.5 5.1-1.5 6.8-2.9 1.7-1.5 2.5-3.3 2.5-5.5 0-1.7-.5-2.9-1.5-3.6-1.1-.8-2.5-1.1-4.3-1zm-8.4-7c1.5-.5 3-.9 4.5-1.1 3.8-.7 5.8.3 5.8 3 0 1.3-.4 2.4-1.3 3.2-.8.8-2 1.4-3.5 1.6l-5.4 1v-7.7zm9.6 16c-1.2 1-2.8 1.6-4.8 2l-4.8.8v-9.2l5.6-1c2-.3 3.4-.2 4.4.3s1.4 1.6 1.4 3c0 1.8-.6 3.2-1.8 4.1zm22.5-3c-.8.5-1.8.8-2.8 1-2.2.4-3.9-.1-5.1-1.5-1.3-1.4-1.9-3.7-1.9-6.8 0-3.2.6-5.7 1.9-7.6 1.3-1.9 3-3 5.1-3.4 1-.2 1.9-.2 2.7 0 .8.1 1.6.5 2.3.9l1.3-1.9c-1-.6-1.9-1.1-3-1.2-1-.2-2.2-.2-3.5.1-1.9.3-3.6 1.1-5.1 2.4-1.5 1.2-2.6 2.8-3.4 4.8-.8 2-1.2 4.1-1.2 6.6 0 2.4.4 4.5 1.2 6.1.8 1.6 1.9 2.8 3.4 3.4 1.5.7 3.2.8 5.1.5 2.4-.4 4.6-1.6 6.5-3.6l-1.2-1.5c-.7.6-1.5 1.3-2.3 1.7zm16.3-23.9c-1.8.3-3.4 1.1-4.8 2.4s-2.4 2.8-3.2 4.8c-.7 1.9-1.1 4.1-1.1 6.5 0 3.7.9 6.4 2.6 8.1 1.7 1.8 4.1 2.4 7.1 1.8 1.5-.3 2.8-.7 4-1.4 1.2-.7 2.4-1.6 3.5-2.7l-1.2-1.4c-1.1 1-2.1 1.7-3 2.3-.9.5-2 .9-3.2 1.1-2.1.4-3.7-.1-5-1.3s-2-3.3-2.1-6.2l15.2-2.7c.1-.6.1-1.2.1-1.8 0-3.4-.8-6-2.3-7.7-1.5-1.8-3.7-2.3-6.6-1.8zm6.4 9.7l-12.8 2.3c.1-3 .8-5.3 1.9-7 1.2-1.7 2.7-2.7 4.6-3 2.1-.4 3.7.1 4.7 1.3 1.1 1.3 1.6 3.2 1.6 5.7v.7zm11.8 7.3c-.4-.3-.9-.4-1.5-.3-.6.1-1.1.4-1.5.9-.4.5-.6 1-.6 1.6s.2 1 .6 1.4c.4.3.9.5 1.5.3.6-.1 1.1-.4 1.5-.9.4-.5.6-1 .6-1.6s-.2-1.1-.6-1.4zm-.3-6.4l.1-20.4-2.7.5.2 20.3 2.4-.4z" fill="#2c3a8e"/></svg>