<?xml version="1.0" encoding="utf-8"?>
<!-- Generator: Adobe Illustrator 22.0.1, SVG Export Plug-In . SVG Version: 6.00 Build 0)  -->
<svg version="1.1" id="Слой_1" xmlns="http://www.w3.org/2000/svg" xmlns:xlink="http://www.w3.org/1999/xlink" x="0px" y="0px"
	 viewBox="0 0 819.8 329.3" style="enable-background:new 0 0 819.8 329.3;" xml:space="preserve">
<style type="text/css">
	.st0{fill:#2E3192;}
</style>
<path class="st0" d="M710.7,221.5L109.1,327.6C48.9,338.2,0,297.9,0,237.7v-1.6C0,176,48.9,118.4,109.1,107.8L710.7,1.7
	c60.2-10.6,109.1,29.7,109.1,89.9v1.6C819.8,153.3,770.9,210.9,710.7,221.5z M109.1,127.6c-49.2,8.7-89.3,55.8-89.3,105.1v1.6
	c0,49.2,40.1,82.2,89.3,73.6l601.6-106.1C759.9,193,800,145.9,800,96.6v-1.6c0-49.2-40.1-82.2-89.3-73.6L109.1,127.6z"/>
</svg>
