<?xml version="1.0" encoding="utf-8"?>
<!-- Generator: Adobe Illustrator 22.0.1, SVG Export Plug-In . SVG Version: 6.00 Build 0)  -->
<svg version="1.1" id="Слой_1" xmlns="http://www.w3.org/2000/svg" xmlns:xlink="http://www.w3.org/1999/xlink" x="0px" y="0px"
	 viewBox="0 0 205 259.9" style="enable-background:new 0 0 205 259.9;" xml:space="preserve">
<style type="text/css">
	.st0{fill:#6D6E71;}
</style>
<path class="st0" d="M193.2,118.4H166V63.5C166,28.4,137.6,0,102.5,0S39,28.4,39,63.5v54.9H11.8c-6.5,0-11.8,5.3-11.8,11.8v118
	c0,6.5,5.3,11.8,11.8,11.8h181.4c6.5,0,11.8-5.3,11.8-11.8v-118C205,123.7,199.7,118.4,193.2,118.4z M66.6,63.5
	c0-19.8,16.1-35.9,35.9-35.9s35.9,16.1,35.9,35.9v54.9H66.6V63.5z"/>
</svg>
