<?xml version="1.0" encoding="utf-8"?>
<!-- Generator: Adobe Illustrator 22.0.1, SVG Export Plug-In . SVG Version: 6.00 Build 0)  -->
<svg version="1.1" id="Слой_1" xmlns="http://www.w3.org/2000/svg" xmlns:xlink="http://www.w3.org/1999/xlink" x="0px" y="0px"
	 viewBox="0 0 345.2 93.9" style="enable-background:new 0 0 345.2 93.9;" xml:space="preserve">
<style type="text/css">
	.st0{fill:#E4D730;}
	.st1{fill:#1CACE4;}
	.st2{fill:#2C3A8E;}
</style>
<g>
	<path class="st0" d="M24.4,77.2c-1.3-1-2.9-1.4-5-1.3c1.7-0.6,3-1.5,4-2.8c1-1.3,1.5-2.9,1.5-4.7c0-2.5-0.9-4.2-2.8-5.1
		c-1.9-0.9-4.5-1.1-8-0.5L7.4,64v29.9l8.2-1.4c3.4-0.6,6-1.7,7.9-3.4c1.9-1.7,2.8-3.9,2.8-6.7C26.3,79.9,25.6,78.2,24.4,77.2z
		 M10,65.7l4.3-0.8c2.6-0.5,4.6-0.4,5.9,0.2c1.3,0.6,2,1.9,2,3.8c0,1.7-0.6,3.2-1.7,4.3c-1.1,1.2-2.6,1.9-4.5,2.3l-6,1.1V65.7z
		 M15.5,90.3l-5.5,1V78.8l6.3-1.1c2.2-0.4,3.9-0.2,5.3,0.6c1.3,0.8,2,2.3,2,4.5C23.6,86.8,20.9,89.3,15.5,90.3z M39.4,73.1l-3.6,0.6
		v-7.7l-2.5,0.4v22.8l6.6-1.2c2.6-0.5,4.6-1.5,6.2-3c1.6-1.6,2.4-3.6,2.4-6.2C48.5,74,45.4,72,39.4,73.1z M44.2,84
		c-1.1,1.1-2.6,1.8-4.6,2.1l-3.8,0.7v-11l3.6-0.6c2.3-0.4,3.9-0.2,4.9,0.5c1,0.7,1.5,2,1.5,3.8C45.8,81.4,45.2,82.9,44.2,84z
		 M52.6,85.9l2.5-0.4V62.6l-2.5,0.4V85.9z M66.7,80.4c0.2-2.8,0.3-5,0.3-6.5V60.6L64.4,61v22.8l3-0.5l11.4-21.9
		c-0.2,2-0.3,4-0.3,5.8v14.1l2.5-0.4V58.1l-3,0.5L66.7,80.4z M90.2,79.3l2.5-0.4V58.2l10.6-1.9l0.3-2.2l-13.5,2.4V79.3z M118.1,51.1
		c-1.4,0.3-2.7,0.8-3.9,1.7c-1.2,0.9-2.2,2-3.1,3.3l-0.2-3.3l-2.2,0.4V85l2.5-0.8V72.9c0.8,0.8,1.7,1.4,2.8,1.8
		c1.1,0.4,2.3,0.4,3.7,0.2c2.8-0.5,4.9-2,6.4-4.4c1.5-2.4,2.2-5.5,2.2-9.1c0-3.8-0.7-6.5-2.1-8.3C123,51.2,120.9,50.6,118.1,51.1z
		 M122.1,69.5c-1.1,1.9-2.7,3-4.8,3.3c-2.5,0.4-4.5-0.4-6-2.4V58.3c0.9-1.4,1.9-2.5,2.9-3.4c1-0.9,2.2-1.4,3.6-1.7
		c4-0.7,6.1,2.2,6.1,8.6C123.7,65.1,123.2,67.7,122.1,69.5z M140.2,55.3l-3.6,0.6v-7.7l-2.5,0.4v22.8l6.6-1.2c2.6-0.5,4.6-1.5,6.2-3
		c1.6-1.6,2.4-3.6,2.4-6.2C149.3,56.2,146.2,54.3,140.2,55.3z M145,66.2c-1.1,1.1-2.6,1.8-4.6,2.1l-3.8,0.7V58l3.6-0.6
		c2.3-0.4,3.9-0.2,4.9,0.5c1,0.7,1.5,2,1.5,3.8C146.6,63.6,146,65.1,145,66.2z M153.4,68.1l2.5-0.4V44.9l-2.5,0.4V68.1z M176.1,51.7
		c1.4-0.5,2.5-1.2,3.3-2.2c0.8-1,1.2-2.1,1.2-3.4c0-1.9-0.7-3.2-2.2-4c-1.5-0.8-3.5-1-6.2-0.5c-2.2,0.4-4.5,1-6.9,2v22.6l7.3-1.3
		c2.9-0.5,5.1-1.5,6.8-2.9c1.7-1.5,2.5-3.3,2.5-5.5c0-1.7-0.5-2.9-1.5-3.6C179.4,51.9,178,51.6,176.1,51.7z M167.7,44.7
		c1.5-0.5,3-0.9,4.5-1.1c3.8-0.7,5.8,0.3,5.8,3c0,1.3-0.4,2.4-1.3,3.2c-0.8,0.8-2,1.4-3.5,1.6l-5.4,1V44.7z M177.3,60.7
		c-1.2,1-2.8,1.6-4.8,2l-4.8,0.8v-9.2l5.6-1c2-0.3,3.4-0.3,4.4,0.3c0.9,0.5,1.4,1.6,1.4,3C179.1,58.4,178.5,59.8,177.3,60.7z
		 M203.4,56.8c-0.3-0.5-0.5-1.3-0.5-2.5v-11c0-4.8-2.5-6.8-7.5-5.9c-2.2,0.4-4.6,1.3-7.2,2.8L189,42c2.4-1.3,4.5-2.1,6.2-2.4
		c1.9-0.3,3.2-0.2,4.1,0.5s1.2,1.9,1.2,3.8v2.2l-4.4,0.8c-3,0.5-5.3,1.6-7,3.1c-1.7,1.6-2.5,3.5-2.5,5.9c0,2.1,0.6,3.6,1.9,4.6
		c1.3,1,3,1.3,5.2,0.9c3.2-0.6,5.5-2.3,7.1-5.1c0.2,1.2,0.5,2,1.1,2.5c0.6,0.5,1.4,0.7,2.4,0.8l0.6-1.9
		C204.2,57.6,203.7,57.3,203.4,56.8z M200.4,54.3c-1.5,2.9-3.6,4.6-6.3,5.1c-1.5,0.3-2.7,0.1-3.5-0.6c-0.8-0.7-1.3-1.8-1.3-3.4
		c0-1.8,0.6-3.3,1.8-4.4c1.2-1.1,3-1.9,5.3-2.3l4-0.7V54.3z M228.8,31.5c-2.6,0.5-4.7,1.8-6.3,4c-1.6,2.2-2.6,4.9-2.8,8.1l-5,0.9
		v-10l-2.5,0.4v22.8l2.5-0.4V46.6l5-0.9c0.1,3.4,1,6,2.6,7.7c1.6,1.7,3.8,2.4,6.5,1.9c1.9-0.3,3.6-1.1,5-2.4
		c1.4-1.2,2.5-2.8,3.2-4.8c0.7-1.9,1.1-4.1,1.1-6.4c0-3.7-0.8-6.4-2.5-8.2C233.9,31.7,231.7,31,228.8,31.5z M233.7,49.8
		c-1.1,1.9-2.8,3-4.9,3.4c-2.1,0.4-3.7-0.2-4.8-1.7c-1.1-1.5-1.7-3.8-1.7-6.9c0-3.2,0.6-5.8,1.7-7.6c1.1-1.8,2.7-2.9,4.8-3.3
		c2.1-0.4,3.7,0.2,4.8,1.7c1.1,1.5,1.7,3.8,1.7,6.9C235.4,45.4,234.8,47.9,233.7,49.8z M240.1,32.2l7.9-1.4v20.6l2.5-0.4V30.4
		l7.6-1.3l0.3-2.2L240.1,30V32.2z M286.4,32.3c1.4-0.5,2.5-1.2,3.3-2.2c0.8-1,1.2-2.1,1.2-3.4c0-1.9-0.7-3.2-2.2-4
		c-1.5-0.8-3.5-1-6.2-0.5c-2.2,0.4-4.5,1-6.9,2v22.6l7.3-1.3c2.9-0.5,5.1-1.5,6.8-2.9c1.7-1.5,2.5-3.3,2.5-5.5
		c0-1.7-0.5-2.9-1.5-3.6C289.6,32.5,288.2,32.2,286.4,32.3z M278,25.3c1.5-0.5,3-0.9,4.5-1.1c3.8-0.7,5.8,0.3,5.8,3
		c0,1.3-0.4,2.4-1.3,3.2c-0.8,0.8-2,1.4-3.5,1.6l-5.4,1V25.3z M287.6,41.3c-1.2,1-2.8,1.6-4.8,2l-4.8,0.8V35l5.6-1
		c2-0.3,3.4-0.2,4.4,0.3s1.4,1.6,1.4,3C289.4,39,288.8,40.3,287.6,41.3z M310.1,38.3c-0.8,0.5-1.8,0.8-2.8,1
		c-2.2,0.4-3.9-0.1-5.1-1.5c-1.3-1.4-1.9-3.7-1.9-6.8c0-3.2,0.6-5.7,1.9-7.6c1.3-1.9,3-3,5.1-3.4c1-0.2,1.9-0.2,2.7,0
		c0.8,0.1,1.6,0.5,2.3,0.9l1.3-1.9c-1-0.6-1.9-1.1-3-1.2c-1-0.2-2.2-0.2-3.5,0.1c-1.9,0.3-3.6,1.1-5.1,2.4c-1.5,1.2-2.6,2.8-3.4,4.8
		c-0.8,2-1.2,4.1-1.2,6.6c0,2.4,0.4,4.5,1.2,6.1c0.8,1.6,1.9,2.8,3.4,3.4c1.5,0.7,3.2,0.8,5.1,0.5c2.4-0.4,4.6-1.6,6.5-3.6l-1.2-1.5
		C311.7,37.2,310.9,37.8,310.1,38.3z M326.4,14.3c-1.8,0.3-3.4,1.1-4.8,2.4s-2.4,2.8-3.2,4.8c-0.7,1.9-1.1,4.1-1.1,6.5
		c0,3.7,0.9,6.4,2.6,8.1c1.7,1.8,4.1,2.4,7.1,1.8c1.5-0.3,2.8-0.7,4-1.4c1.2-0.7,2.4-1.6,3.5-2.7l-1.2-1.4c-1.1,1-2.1,1.7-3,2.3
		c-0.9,0.5-2,0.9-3.2,1.1c-2.1,0.4-3.7-0.1-5-1.3s-2-3.3-2.1-6.2l15.2-2.7c0.1-0.6,0.1-1.2,0.1-1.8c0-3.4-0.8-6-2.3-7.7
		C331.5,14.4,329.3,13.8,326.4,14.3z M332.8,24.1L320,26.4c0.1-3,0.8-5.3,1.9-7c1.2-1.7,2.7-2.7,4.6-3c2.1-0.4,3.7,0.1,4.7,1.3
		c1.1,1.3,1.6,3.2,1.6,5.7V24.1z M344.3,25l0.2-20.4l-2.7,0.5l0.2,20.3L344.3,25z M344.6,31.4c-0.4-0.3-0.9-0.4-1.5-0.3
		c-0.6,0.1-1.1,0.4-1.5,0.9c-0.4,0.5-0.6,1-0.6,1.6s0.2,1,0.6,1.4c0.4,0.3,0.9,0.5,1.5,0.3c0.6-0.1,1.1-0.4,1.5-0.9
		c0.4-0.5,0.6-1,0.6-1.6S345,31.7,344.6,31.4z"/>
	<path class="st1" d="M17,76c-1.3-1-2.9-1.4-5-1.3c1.7-0.6,3-1.5,4-2.8c1-1.3,1.5-2.9,1.5-4.7c0-2.5-0.9-4.2-2.8-5.1
		c-1.9-0.9-4.5-1.1-8-0.5L0,62.7v29.9l8.2-1.4c3.4-0.6,6-1.7,7.9-3.4c1.9-1.7,2.8-3.9,2.8-6.7C18.9,78.6,18.3,76.9,17,76z M2.6,64.5
		l4.3-0.8c2.6-0.5,4.6-0.4,5.9,0.2c1.3,0.6,2,1.9,2,3.8c0,1.7-0.6,3.2-1.7,4.3c-1.1,1.2-2.6,1.9-4.5,2.3l-6,1.1V64.5z M8.2,89
		l-5.5,1V77.5l6.3-1.1c2.2-0.4,3.9-0.2,5.3,0.6c1.3,0.8,2,2.3,2,4.5C16.2,85.6,13.5,88.1,8.2,89z M45.3,84.7l2.5-0.4V61.4l-2.5,0.4
		V84.7z M32,71.8l-3.6,0.6v-7.7l-2.5,0.4v22.8l6.6-1.2c2.6-0.5,4.6-1.5,6.2-3c1.6-1.6,2.4-3.6,2.4-6.2C41.1,72.7,38.1,70.8,32,71.8z
		 M36.8,82.7c-1.1,1.1-2.6,1.8-4.6,2.1l-3.8,0.7v-11l3.6-0.6c2.3-0.4,3.9-0.2,4.9,0.5c1,0.7,1.5,2,1.5,3.8
		C38.4,80.1,37.9,81.6,36.8,82.7z M59.3,79.2c0.2-2.8,0.3-5,0.3-6.5V59.3L57,59.8v22.8l3-0.5l11.4-21.9c-0.2,2-0.3,4-0.3,5.8v14.1
		l2.5-0.4V56.8l-3,0.5L59.3,79.2z M82.9,78l2.5-0.4V56.9L96,55.1l0.3-2.2l-13.5,2.4V78z M110.8,49.8c-1.4,0.3-2.7,0.8-3.9,1.7
		c-1.2,0.9-2.2,2-3.1,3.3l-0.2-3.3l-2.2,0.4v31.8l2.5-0.8V71.7c0.8,0.8,1.7,1.4,2.8,1.8c1.1,0.4,2.3,0.4,3.7,0.2
		c2.8-0.5,4.9-2,6.4-4.4c1.5-2.4,2.2-5.5,2.2-9.1c0-3.8-0.7-6.5-2.1-8.3C115.6,50,113.5,49.3,110.8,49.8z M114.7,68.3
		c-1.1,1.9-2.7,3-4.8,3.3c-2.5,0.4-4.5-0.4-6-2.4V57c0.9-1.4,1.9-2.5,2.9-3.4c1-0.9,2.2-1.4,3.6-1.7c4-0.7,6.1,2.2,6.1,8.6
		C116.3,63.9,115.8,66.4,114.7,68.3z M132.8,54.1l-3.6,0.6V47l-2.5,0.4v22.8l6.6-1.2c2.6-0.5,4.6-1.5,6.2-3c1.6-1.6,2.4-3.6,2.4-6.2
		C141.9,54.9,138.9,53,132.8,54.1z M137.6,64.9c-1.1,1.1-2.6,1.8-4.6,2.1l-3.8,0.7v-11l3.6-0.6c2.3-0.4,3.9-0.2,4.9,0.5
		c1,0.7,1.5,2,1.5,3.8C139.2,62.3,138.7,63.9,137.6,64.9z M146.1,66.9l2.5-0.4V43.6l-2.5,0.4V66.9z M168.7,50.5
		c1.4-0.5,2.5-1.2,3.3-2.2c0.8-1,1.2-2.1,1.2-3.4c0-1.9-0.7-3.2-2.2-4c-1.5-0.8-3.5-1-6.2-0.5c-2.2,0.4-4.5,1-6.9,2v22.6l7.3-1.3
		c2.9-0.5,5.1-1.5,6.8-2.9c1.7-1.5,2.5-3.3,2.5-5.5c0-1.7-0.5-2.9-1.5-3.6C172,50.6,170.6,50.3,168.7,50.5z M160.4,43.5
		c1.5-0.5,3-0.9,4.5-1.1c3.8-0.7,5.8,0.3,5.8,3c0,1.3-0.4,2.4-1.3,3.2c-0.8,0.8-2,1.4-3.5,1.6l-5.4,1V43.5z M170,59.5
		c-1.2,1-2.8,1.6-4.8,2l-4.8,0.8v-9.2l5.6-1c2-0.3,3.4-0.3,4.4,0.3c0.9,0.5,1.4,1.6,1.4,3C171.8,57.2,171.2,58.5,170,59.5z
		 M196,55.6c-0.3-0.5-0.5-1.3-0.5-2.5v-11c0-4.8-2.5-6.8-7.5-5.9c-2.2,0.4-4.6,1.3-7.2,2.8l0.7,1.8c2.4-1.3,4.5-2.1,6.2-2.4
		c1.9-0.3,3.2-0.2,4.1,0.5s1.2,1.9,1.2,3.8v2.2l-4.4,0.8c-3,0.5-5.3,1.6-7,3.1c-1.7,1.6-2.5,3.5-2.5,5.9c0,2.1,0.6,3.6,1.9,4.6
		c1.3,1,3,1.3,5.2,0.9c3.2-0.6,5.5-2.3,7.1-5.1c0.2,1.2,0.5,2,1.1,2.5c0.6,0.5,1.4,0.7,2.4,0.8l0.6-1.9
		C196.8,56.4,196.3,56,196,55.6z M193.1,53c-1.5,2.9-3.6,4.6-6.3,5.1c-1.5,0.3-2.7,0.1-3.5-0.6c-0.8-0.7-1.3-1.8-1.3-3.4
		c0-1.8,0.6-3.3,1.8-4.4c1.2-1.1,3-1.9,5.3-2.3l4-0.7V53z M221.5,30.3c-2.6,0.5-4.7,1.8-6.3,4c-1.6,2.2-2.6,4.9-2.8,8.1l-5,0.9v-10
		l-2.5,0.4v22.8l2.5-0.4V45.3l5-0.9c0.1,3.4,1,6,2.6,7.7c1.6,1.7,3.8,2.4,6.5,1.9c1.9-0.3,3.6-1.1,5-2.4c1.4-1.2,2.5-2.8,3.2-4.8
		c0.7-1.9,1.1-4.1,1.1-6.4c0-3.7-0.8-6.4-2.5-8.2C226.6,30.4,224.3,29.8,221.5,30.3z M226.3,48.5c-1.1,1.9-2.8,3-4.9,3.4
		c-2.1,0.4-3.7-0.2-4.8-1.7c-1.1-1.5-1.7-3.8-1.7-6.9c0-3.2,0.6-5.8,1.7-7.6c1.1-1.8,2.7-2.9,4.8-3.3c2.1-0.4,3.7,0.2,4.8,1.7
		c1.1,1.5,1.7,3.8,1.7,6.9C228,44.1,227.4,46.7,226.3,48.5z M232.8,30.9l7.9-1.4v20.6l2.5-0.4V29.1l7.6-1.3l0.3-2.2l-18.3,3.2V30.9z
		 M279,31c1.4-0.5,2.5-1.2,3.3-2.2c0.8-1,1.2-2.1,1.2-3.4c0-1.9-0.7-3.2-2.2-4c-1.5-0.8-3.5-1-6.2-0.5c-2.2,0.4-4.5,1-6.9,2v22.6
		l7.3-1.3c2.9-0.5,5.1-1.5,6.8-2.9c1.7-1.5,2.5-3.3,2.5-5.5c0-1.7-0.5-2.9-1.5-3.6C282.3,31.2,280.8,30.9,279,31z M270.6,24
		c1.5-0.5,3-0.9,4.5-1.1c3.8-0.7,5.8,0.3,5.8,3c0,1.3-0.4,2.4-1.3,3.2c-0.8,0.8-2,1.4-3.5,1.6l-5.4,1V24z M280.2,40
		c-1.2,1-2.8,1.6-4.8,2l-4.8,0.8v-9.2l5.6-1c2-0.3,3.4-0.2,4.4,0.3s1.4,1.6,1.4,3C282,37.7,281.4,39.1,280.2,40z M302.7,37
		c-0.8,0.5-1.8,0.8-2.8,1c-2.2,0.4-3.9-0.1-5.1-1.5c-1.3-1.4-1.9-3.7-1.9-6.8c0-3.2,0.6-5.7,1.9-7.6c1.3-1.9,3-3,5.1-3.4
		c1-0.2,1.9-0.2,2.7,0c0.8,0.1,1.6,0.5,2.3,0.9l1.3-1.9c-1-0.6-1.9-1.1-3-1.2c-1-0.2-2.2-0.2-3.5,0.1c-1.9,0.3-3.6,1.1-5.1,2.4
		c-1.5,1.2-2.6,2.8-3.4,4.8c-0.8,2-1.2,4.1-1.2,6.6c0,2.4,0.4,4.5,1.2,6.1c0.8,1.6,1.9,2.8,3.4,3.4c1.5,0.7,3.2,0.8,5.1,0.5
		c2.4-0.4,4.6-1.6,6.5-3.6l-1.2-1.5C304.4,35.9,303.5,36.6,302.7,37z M319,13.1c-1.8,0.3-3.4,1.1-4.8,2.4s-2.4,2.8-3.2,4.8
		c-0.7,1.9-1.1,4.1-1.1,6.5c0,3.7,0.9,6.4,2.6,8.1c1.7,1.8,4.1,2.4,7.1,1.8c1.5-0.3,2.8-0.7,4-1.4c1.2-0.7,2.4-1.6,3.5-2.7l-1.2-1.4
		c-1.1,1-2.1,1.7-3,2.3c-0.9,0.5-2,0.9-3.2,1.1c-2.1,0.4-3.7-0.1-5-1.3s-2-3.3-2.1-6.2l15.2-2.7c0.1-0.6,0.1-1.2,0.1-1.8
		c0-3.4-0.8-6-2.3-7.7C324.2,13.2,321.9,12.6,319,13.1z M325.4,22.9l-12.8,2.3c0.1-3,0.8-5.3,1.9-7c1.2-1.7,2.7-2.7,4.6-3
		c2.1-0.4,3.7,0.1,4.7,1.3c1.1,1.3,1.6,3.2,1.6,5.7V22.9z M337.2,30.1c-0.4-0.3-0.9-0.4-1.5-0.3c-0.6,0.1-1.1,0.4-1.5,0.9
		c-0.4,0.5-0.6,1-0.6,1.6s0.2,1,0.6,1.4c0.4,0.3,0.9,0.5,1.5,0.3c0.6-0.1,1.1-0.4,1.5-0.9c0.4-0.5,0.6-1,0.6-1.6
		S337.6,30.4,337.2,30.1z M336.9,23.7l0.2-20.4l-2.7,0.5l0.2,20.3L336.9,23.7z"/>
	<path class="st2" d="M20.3,72.6c-1.3-1-2.9-1.4-5-1.3c1.7-0.6,3-1.5,4-2.8c1-1.3,1.5-2.9,1.5-4.7c0-2.5-0.9-4.2-2.8-5.1
		c-1.9-0.9-4.5-1.1-8-0.5l-6.7,1.2v29.9l8.2-1.4c3.4-0.6,6-1.7,7.9-3.4c1.9-1.7,2.8-3.9,2.8-6.7C22.2,75.3,21.6,73.6,20.3,72.6z
		 M5.9,61.2l4.3-0.8c2.6-0.5,4.6-0.4,5.9,0.2c1.3,0.6,2,1.9,2,3.8c0,1.7-0.6,3.2-1.7,4.3c-1.1,1.2-2.6,1.9-4.5,2.3l-6,1.1V61.2z
		 M11.5,85.7l-5.5,1V74.2l6.3-1.1c2.2-0.4,3.9-0.2,5.3,0.6c1.3,0.8,2,2.3,2,4.5C19.5,82.3,16.8,84.8,11.5,85.7z M48.5,81.3l2.5-0.4
		V58.1l-2.5,0.4V81.3z M35.3,68.5l-3.6,0.6v-7.7l-2.5,0.4v22.8l6.6-1.2c2.6-0.5,4.6-1.5,6.2-3c1.6-1.6,2.4-3.6,2.4-6.2
		C44.4,69.4,41.4,67.5,35.3,68.5z M40.1,79.4c-1.1,1.1-2.6,1.8-4.6,2.1l-3.8,0.7v-11l3.6-0.6c2.3-0.4,3.9-0.2,4.9,0.5
		c1,0.7,1.5,2,1.5,3.8C41.7,76.8,41.2,78.3,40.1,79.4z M62.6,75.9c0.2-2.8,0.3-5,0.3-6.5V56l-2.5,0.4v22.8l3-0.5l11.4-21.9
		c-0.2,2-0.3,4-0.3,5.8v14.1l2.5-0.4V53.5l-3,0.5L62.6,75.9z M86.2,74.7l2.5-0.4V53.6l10.6-1.9l0.3-2.2l-13.5,2.4V74.7z M114,46.5
		c-1.4,0.3-2.7,0.8-3.9,1.7c-1.2,0.9-2.2,2-3.1,3.3l-0.2-3.3l-2.2,0.4v31.8l2.5-0.8V68.3c0.8,0.8,1.7,1.4,2.8,1.8
		c1.1,0.4,2.3,0.4,3.7,0.2c2.8-0.5,4.9-2,6.4-4.4c1.5-2.4,2.2-5.5,2.2-9.1c0-3.8-0.7-6.5-2.1-8.3C118.9,46.7,116.8,46,114,46.5z
		 M118,65c-1.1,1.9-2.7,3-4.8,3.3c-2.5,0.4-4.5-0.4-6-2.4V53.7c0.9-1.4,1.9-2.5,2.9-3.4c1-0.9,2.2-1.4,3.6-1.7
		c4-0.7,6.1,2.2,6.1,8.6C119.6,60.5,119.1,63.1,118,65z M136.1,50.8l-3.6,0.6v-7.7l-2.5,0.4V67l6.6-1.2c2.6-0.5,4.6-1.5,6.2-3
		c1.6-1.6,2.4-3.6,2.4-6.2C145.2,51.6,142.2,49.7,136.1,50.8z M140.9,61.6c-1.1,1.1-2.6,1.8-4.6,2.1l-3.8,0.7v-11l3.6-0.6
		c2.3-0.4,3.9-0.2,4.9,0.5c1,0.7,1.5,2,1.5,3.8C142.5,59,142,60.6,140.9,61.6z M149.3,63.6l2.5-0.4V40.3l-2.5,0.4V63.6z M172,47.2
		c1.4-0.5,2.5-1.2,3.3-2.2c0.8-1,1.2-2.1,1.2-3.4c0-1.9-0.7-3.2-2.2-4c-1.5-0.8-3.5-1-6.2-0.5c-2.2,0.4-4.5,1-6.9,2v22.6l7.3-1.3
		c2.9-0.5,5.1-1.5,6.8-2.9c1.7-1.5,2.5-3.3,2.5-5.5c0-1.7-0.5-2.9-1.5-3.6C175.3,47.3,173.9,47,172,47.2z M163.7,40.1
		c1.5-0.5,3-0.9,4.5-1.1c3.8-0.7,5.8,0.3,5.8,3c0,1.3-0.4,2.4-1.3,3.2c-0.8,0.8-2,1.4-3.5,1.6l-5.4,1V40.1z M173.3,56.2
		c-1.2,1-2.8,1.6-4.8,2l-4.8,0.8v-9.2l5.6-1c2-0.3,3.4-0.3,4.4,0.3c0.9,0.5,1.4,1.6,1.4,3C175.1,53.9,174.5,55.2,173.3,56.2z
		 M199.3,52.3c-0.3-0.5-0.5-1.3-0.5-2.5v-11c0-4.8-2.5-6.8-7.5-5.9c-2.2,0.4-4.6,1.3-7.2,2.8l0.7,1.8c2.4-1.3,4.5-2.1,6.2-2.4
		c1.9-0.3,3.2-0.2,4.1,0.5s1.2,1.9,1.2,3.8v2.2l-4.4,0.8c-3,0.5-5.3,1.6-7,3.1c-1.7,1.6-2.5,3.5-2.5,5.9c0,2.1,0.6,3.6,1.9,4.6
		c1.3,1,3,1.3,5.2,0.9c3.2-0.6,5.5-2.3,7.1-5.1c0.2,1.2,0.5,2,1.1,2.5c0.6,0.5,1.4,0.7,2.4,0.8l0.6-1.9
		C200.1,53,199.6,52.7,199.3,52.3z M196.3,49.7c-1.5,2.9-3.6,4.6-6.3,5.1c-1.5,0.3-2.7,0.1-3.5-0.6c-0.8-0.7-1.3-1.8-1.3-3.4
		c0-1.8,0.6-3.3,1.8-4.4c1.2-1.1,3-1.9,5.3-2.3l4-0.7V49.7z M224.8,27c-2.6,0.5-4.7,1.8-6.3,4c-1.6,2.2-2.6,4.9-2.8,8.1l-5,0.9v-10
		l-2.5,0.4v22.8l2.5-0.4V42l5-0.9c0.1,3.4,1,6,2.6,7.7c1.6,1.7,3.8,2.4,6.5,1.9c1.9-0.3,3.6-1.1,5-2.4c1.4-1.2,2.5-2.8,3.2-4.8
		c0.7-1.9,1.1-4.1,1.1-6.4c0-3.7-0.8-6.4-2.5-8.2C229.9,27.1,227.6,26.5,224.8,27z M229.6,45.2c-1.1,1.9-2.8,3-4.9,3.4
		c-2.1,0.4-3.7-0.2-4.8-1.7c-1.1-1.5-1.7-3.8-1.7-6.9c0-3.2,0.6-5.8,1.7-7.6c1.1-1.8,2.7-2.9,4.8-3.3c2.1-0.4,3.7,0.2,4.8,1.7
		c1.1,1.5,1.7,3.8,1.7,6.9C231.3,40.8,230.7,43.3,229.6,45.2z M236.1,27.6l7.9-1.4v20.6l2.5-0.4V25.8l7.6-1.3l0.3-2.2l-18.3,3.2
		V27.6z M282.3,27.7c1.4-0.5,2.5-1.2,3.3-2.2c0.8-1,1.2-2.1,1.2-3.4c0-1.9-0.7-3.2-2.2-4c-1.5-0.8-3.5-1-6.2-0.5
		c-2.2,0.4-4.5,1-6.9,2V42l7.3-1.3c2.9-0.5,5.1-1.5,6.8-2.9c1.7-1.5,2.5-3.3,2.5-5.5c0-1.7-0.5-2.9-1.5-3.6
		C285.5,27.9,284.1,27.6,282.3,27.7z M273.9,20.7c1.5-0.5,3-0.9,4.5-1.1c3.8-0.7,5.8,0.3,5.8,3c0,1.3-0.4,2.4-1.3,3.2
		c-0.8,0.8-2,1.4-3.5,1.6l-5.4,1V20.7z M283.5,36.7c-1.2,1-2.8,1.6-4.8,2l-4.8,0.8v-9.2l5.6-1c2-0.3,3.4-0.2,4.4,0.3s1.4,1.6,1.4,3
		C285.3,34.4,284.7,35.8,283.5,36.7z M306,33.7c-0.8,0.5-1.8,0.8-2.8,1c-2.2,0.4-3.9-0.1-5.1-1.5c-1.3-1.4-1.9-3.7-1.9-6.8
		c0-3.2,0.6-5.7,1.9-7.6c1.3-1.9,3-3,5.1-3.4c1-0.2,1.9-0.2,2.7,0c0.8,0.1,1.6,0.5,2.3,0.9l1.3-1.9c-1-0.6-1.9-1.1-3-1.2
		c-1-0.2-2.2-0.2-3.5,0.1c-1.9,0.3-3.6,1.1-5.1,2.4c-1.5,1.2-2.6,2.8-3.4,4.8c-0.8,2-1.2,4.1-1.2,6.6c0,2.4,0.4,4.5,1.2,6.1
		c0.8,1.6,1.9,2.8,3.4,3.4c1.5,0.7,3.2,0.8,5.1,0.5c2.4-0.4,4.6-1.6,6.5-3.6l-1.2-1.5C307.6,32.6,306.8,33.3,306,33.7z M322.3,9.8
		c-1.8,0.3-3.4,1.1-4.8,2.4s-2.4,2.8-3.2,4.8c-0.7,1.9-1.1,4.1-1.1,6.5c0,3.7,0.9,6.4,2.6,8.1c1.7,1.8,4.1,2.4,7.1,1.8
		c1.5-0.3,2.8-0.7,4-1.4c1.2-0.7,2.4-1.6,3.5-2.7l-1.2-1.4c-1.1,1-2.1,1.7-3,2.3c-0.9,0.5-2,0.9-3.2,1.1c-2.1,0.4-3.7-0.1-5-1.3
		s-2-3.3-2.1-6.2l15.2-2.7c0.1-0.6,0.1-1.2,0.1-1.8c0-3.4-0.8-6-2.3-7.7C327.4,9.8,325.2,9.3,322.3,9.8z M328.7,19.5l-12.8,2.3
		c0.1-3,0.8-5.3,1.9-7c1.2-1.7,2.7-2.7,4.6-3c2.1-0.4,3.7,0.1,4.7,1.3c1.1,1.3,1.6,3.2,1.6,5.7V19.5z M340.5,26.8
		c-0.4-0.3-0.9-0.4-1.5-0.3c-0.6,0.1-1.1,0.4-1.5,0.9c-0.4,0.5-0.6,1-0.6,1.6s0.2,1,0.6,1.4c0.4,0.3,0.9,0.5,1.5,0.3
		c0.6-0.1,1.1-0.4,1.5-0.9c0.4-0.5,0.6-1,0.6-1.6S340.9,27.1,340.5,26.8z M340.2,20.4L340.3,0l-2.7,0.5l0.2,20.3L340.2,20.4z"/>
</g>
</svg>
